PathFileType	4	(X/Y/Z)	C:\Users\Basilio\Documents\Thesis Gigler\squatting_fais\c3dfiles\076\SJ_pre1\markers_experimental.trc
DataRate	CameraRate	NumFrames	NumMarkers	Units	OrigDataRate	OrigDataStartFrame	OrigNumFrames
200.000000	200.000000	4	61	mm	200.000000	919	1226
Frame#	Time	FHD			LBHD			RBHD			C7			T10			CLAV			LSHO			LUUPA			LMUPA			LDUPA			LLEP			LMEP			LRAD			LUL			LRFIN			RSHO			RUPA1			RMUPA			RDUPA			RLEP			RMEP			RRAD			RUL			RUFIN			LASI			RASI			USACR			LSACR			RSACR			LTHI1			LTHI2			LTHI3			LTHI4			LLFC			LMFC			LTIB1			LTIB2			LTIB3			LTIB4			LLMAL			LMMAL			LHEE			LMT1			LMT2			LMT5			RTHI			RTHI2			RTHI3			RTHI4			RLFC			RMFC			RTIB1			RTIB2			RTIB3			RTIB4			RLMAL			RMMAL			RHEE			RMT1			RMT2			RMT5			
		X1	Y1	Z1	X2	Y2	Z2	X3	Y3	Z3	X4	Y4	Z4	X5	Y5	Z5	X6	Y6	Z6	X7	Y7	Z7	X8	Y8	Z8	X9	Y9	Z9	X10	Y10	Z10	X11	Y11	Z11	X12	Y12	Z12	X13	Y13	Z13	X14	Y14	Z14	X15	Y15	Z15	X16	Y16	Z16	X17	Y17	Z17	X18	Y18	Z18	X19	Y19	Z19	X20	Y20	Z20	X21	Y21	Z21	X22	Y22	Z22	X23	Y23	Z23	X24	Y24	Z24	X25	Y25	Z25	X26	Y26	Z26	X27	Y27	Z27	X28	Y28	Z28	X29	Y29	Z29	X30	Y30	Z30	X31	Y31	Z31	X32	Y32	Z32	X33	Y33	Z33	X34	Y34	Z34	X35	Y35	Z35	X36	Y36	Z36	X37	Y37	Z37	X38	Y38	Z38	X39	Y39	Z39	X40	Y40	Z40	X41	Y41	Z41	X42	Y42	Z42	X43	Y43	Z43	X44	Y44	Z44	X45	Y45	Z45	X46	Y46	Z46	X47	Y47	Z47	X48	Y48	Z48	X49	Y49	Z49	X50	Y50	Z50	X51	Y51	Z51	X52	Y52	Z52	X53	Y53	Z53	X54	Y54	Z54	X55	Y55	Z55	X56	Y56	Z56	X57	Y57	Z57	X58	Y58	Z58	X59	Y59	Z59	X60	Y60	Z60	X61	Y61	Z61	

920	4.595	-283.9399108886719	1625.4345703125	-904.7023925781252	-403.4439697265626	1531.644287109375	-1007.323913574219	-397.4800720214845	1536.048461914063	-854.899108886719	-429.5893859863282	1424.584228515625	-931.7405395507815	-477.0154113769532	1110.014526367188	-942.1706542968752	-290.2608337402344	1345.922607421875	-928.0401611328127	-346.4290466308594	1369.952270507813	-1106.919067382813	-354.8966674804688	1208.056030273438	-1232.208862304688	-347.6050415039063	1163.71875	-1210.526000976563	-365.3757324218751	1147.3779296875	-1265.917114257813	-379.5768737792969	1099.622314453125	-1293.476684570313	-463.9262695312501	1102.095947265625	-1270.011840820313	-441.1618652343751	924.342468261719	-1134.459838867188	-393.664520263672	937.4029541015627	-1108.877319335938	-395.5959777832032	886.6567382812502	-1164.535522460938	-360.1758117675782	1362.127075195313	-760.1300048828126	-425.2625732421876	1223.340087890625	-632.2163696289064	-398.0022888183595	1180.802734375	-631.3778686523439	-444.1516418457032	1165.015991210938	-595.4956054687501	-448.6337890625001	1094.515258789063	-575.6932373046876	-517.1615600585939	1092.410034179688	-631.2785034179689	-448.5603637695314	925.7171020507815	-748.0502319335939	-394.6139221191407	937.436706542969	-759.0991821289064	-408.9829101562501	890.8685302734377	-705.0878906250001	-339.5841979980469	911.3281860351565	-1042.409912109375	-338.1619873046876	913.6767578125002	-837.4184570312502	-493.7714843750001	1004.300231933594	-938.644470214844	-506.1753845214845	976.8704223632815	-966.6807250976565	-505.9098205566407	976.4907836914065	-909.1848754882815	-428.487762451172	770.259704589844	-1122.873046875	-390.7889099121095	693.3150024414064	-1129.441528320313	-342.0647583007813	699.9176025390626	-1121.522094726563	-414.1640930175782	638.1718139648439	-1117.354370117188	-386.4725646972657	480.8149719238282	-1108.904907226563	-348.0463562011719	468.2850036621095	-998.537780761719	-349.7290649414063	329.8281555175782	-1055.055908203125	-375.2650756835938	281.5325317382813	-1124.59228515625	-345.7188110351563	282.0365600585938	-1089.306518554688	-361.7677307128907	202.7165679931641	-1063.2021484375	-418.5743103027345	81.55442810058595	-1128.849975585938	-386.8123474121095	92.07397460937501	-1047.151733398438	-462.7387084960939	36.11776733398438	-1075.737548828125	-259.0075988769532	83.86241149902345	-1087.206420898438	-259.7636413574219	86.64733123779298	-1126.755004882813	-283.6293945312501	67.1969451904297	-1173.102416992188	-417.8122863769532	675.8009033203126	-750.2540893554689	-375.1622619628907	624.6621093750001	-744.4830322265626	-341.0570678710938	629.9790039062501	-750.7176513671876	-393.1094360351564	544.8500366210939	-757.0737304687501	-383.0897216796876	484.9615478515626	-756.8867187500001	-348.0415954589844	475.7332153320314	-868.5718383789065	-334.8443298339844	351.2255554199219	-763.4337768554689	-403.3399963378907	269.8264160156251	-736.1350097656251	-357.2281799316407	268.8656921386719	-746.0918579101564	-339.6484375000001	221.6765747070313	-775.021423339844	-395.733612060547	79.45034027099611	-735.3131103515626	-368.7850646972657	93.39770507812501	-817.449645996094	-439.0013427734376	40.99775695800782	-787.0281372070315	-239.5610504150391	88.35134887695314	-777.110290527344	-243.7679443359376	97.56253051757815	-732.0893554687501	-271.2216796875001	69.23853302001955	-683.2228393554689	
921	4.600000000000001	-285.6315917968751	1625.664306640625	-904.7329101562502	-405.342498779297	1531.797485351563	-1007.715637207031	-398.9006652832032	1535.904296875	-855.0444946289065	-430.8442993164064	1424.604370117188	-932.1687011718752	-478.0875549316407	1109.891235351563	-942.859069824219	-291.5160827636719	1346.157470703125	-928.498229980469	-347.6489562988282	1369.784423828125	-1107.60009765625	-355.8875427246094	1207.412231445313	-1232.334228515625	-347.1369323730469	1162.87451171875	-1210.099853515625	-365.9926147460938	1146.637573242188	-1265.849365234375	-379.6942443847657	1098.58251953125	-1292.529174804688	-464.5101928710939	1101.080200195313	-1269.908447265625	-441.9301757812501	923.6038208007815	-1134.436401367188	-394.1692199707032	936.770446777344	-1109.302734375	-396.1614990234376	885.7077636718752	-1164.338012695313	-360.9322814941407	1361.870239257813	-760.5551757812501	-425.0241699218751	1222.579956054688	-632.7574462890626	-397.8520812988282	1179.975463867188	-632.1965942382814	-443.7142028808595	1164.200927734375	-596.0298461914064	-448.020233154297	1093.712524414063	-576.3261108398439	-516.9510498046876	1091.411987304688	-631.4782104492189	-449.011688232422	924.9945068359377	-748.6658325195314	-395.1216125488282	936.8823242187502	-759.5482177734376	-409.2097167968751	890.2357177734377	-705.9189453125001	-339.7363891601563	911.5515136718752	-1043.18896484375	-338.7321472167969	913.771911621094	-837.9046020507815	-494.3693237304689	1004.183044433594	-939.236022949219	-506.5350646972657	976.4505615234377	-967.1558837890627	-506.3030090332032	976.2407226562502	-909.802429199219	-428.3105773925782	770.1312255859377	-1123.166870117188	-390.5837402343751	693.1779174804689	-1129.864868164063	-341.8819274902344	699.7872314453126	-1122.001953125	-413.8788146972657	638.0646972656251	-1117.7138671875	-386.1887817382814	480.772674560547	-1109.1796875	-347.6325378417969	468.2537536621095	-998.7816162109377	-349.2914733886719	329.7864685058594	-1055.070922851563	-375.0884704589844	281.4101562500001	-1124.70703125	-345.4590454101563	281.9192810058594	-1089.405029296875	-361.5768127441407	202.6162261962891	-1063.272705078125	-418.6167907714845	81.53867340087892	-1128.804931640625	-386.7420349121095	91.9734344482422	-1047.113647460938	-462.7039489746095	36.15110015869141	-1075.698364257813	-258.9251098632813	83.8904266357422	-1087.350952148438	-259.8240966796876	86.71166992187501	-1126.893310546875	-283.7165527343751	67.2800750732422	-1173.277954101563	-418.1246643066407	675.8004150390626	-750.6933593750001	-375.4326477050782	624.6184692382814	-744.9570312500001	-341.3661499023438	629.9992065429689	-751.3356323242189	-393.355682373047	544.8574218750001	-757.6420898437501	-383.3663330078126	484.9265747070314	-757.3522949218751	-348.4363098144532	475.507537841797	-869.2490234375002	-335.0410156250001	351.1776123046876	-763.8203735351564	-403.459930419922	269.8730163574219	-736.3997802734376	-357.3814086914063	268.9346008300782	-746.3917846679689	-339.7958984375001	221.6778869628907	-775.3101196289065	-395.726776123047	79.4867401123047	-735.4207153320314	-368.8685913085938	93.3269729614258	-817.524841308594	-438.9299316406251	40.90109252929688	-787.051696777344	-239.615951538086	88.50636291503908	-777.3697509765627	-243.8443450927735	97.68711853027347	-732.3833618164064	-271.1813964843751	69.48758697509767	-683.3851318359376	
922	4.605	-286.9935302734376	1625.749145507813	-904.713806152344	-406.5471496582032	1532.010009765625	-1007.680725097656	-400.3121032714845	1535.84423828125	-855.1871337890627	-432.1077270507814	1424.7099609375	-932.4785766601565	-478.8132629394532	1109.9033203125	-943.4661254882815	-292.9050292968751	1346.376342773438	-929.1568603515627	-348.7123413085938	1369.729248046875	-1108.195068359375	-356.5974426269532	1206.829345703125	-1232.396118164063	-348.4339294433594	1162.602661132813	-1210.172729492188	-366.4797668457032	1146.080322265625	-1265.725219726563	-380.4035949707032	1098.087036132813	-1292.559692382813	-465.0983276367189	1100.686279296875	-1269.826904296875	-442.4926147460939	923.0112915039065	-1134.332763671875	-394.8518981933595	936.3356933593752	-1109.71044921875	-396.8082580566407	885.1223144531252	-1164.416870117188	-361.7203369140626	1361.77880859375	-761.0084228515626	-424.7904663085939	1222.088989257813	-633.3197631835939	-397.6917114257814	1179.4912109375	-633.0145874023439	-443.2793579101564	1163.674682617188	-596.5117187500001	-447.3843688964845	1093.156616210938	-576.8922729492189	-516.6585693359376	1090.814697265625	-631.7521362304689	-449.3419799804689	924.480407714844	-749.3441162109376	-395.6490478515626	936.5152587890627	-759.9857177734376	-409.4479370117189	889.7006835937502	-706.7677001953126	-339.8446350097657	911.736267089844	-1043.858764648438	-339.1744384765626	913.9551391601565	-838.328308105469	-494.873260498047	1003.830261230469	-939.6768188476565	-506.9664916992189	976.1775512695315	-967.6894531250002	-507.0533752441407	975.850280761719	-910.2617797851565	-428.0669555664064	770.0576171875002	-1123.6171875	-390.3836364746095	693.2549438476564	-1130.365478515625	-341.6223754882813	699.6475830078126	-1122.4892578125	-413.7583312988282	638.0266113281251	-1118.059326171875	-386.1291809082032	480.7781066894532	-1109.424072265625	-347.3842468261719	468.2437438964845	-999.102722167969	-349.1867065429688	329.6896667480469	-1055.265502929688	-374.9188842773438	281.3005676269532	-1124.787231445313	-345.3272094726563	281.8730163574219	-1089.495849609375	-361.4329833984376	202.5201721191407	-1063.34912109375	-418.6058044433595	81.52220153808595	-1128.74755859375	-386.712615966797	91.94264221191408	-1047.052001953125	-462.6987609863282	36.13124465942384	-1075.614379882813	-258.9226989746094	83.99973297119142	-1087.464233398438	-259.9266662597657	86.82983398437501	-1127.046020507813	-283.8070983886719	67.42098999023439	-1173.40087890625	-418.4681396484376	675.8001708984376	-751.1584472656251	-375.7850952148438	624.5736083984376	-745.4213867187501	-341.6463623046876	630.0686645507814	-751.8642578125001	-393.7495117187501	544.8041381835939	-758.1880493164064	-383.6763610839844	484.9640197753907	-757.7929687500001	-348.8103332519532	475.3892211914064	-869.6699829101565	-335.2773437500001	351.2232971191407	-764.1356201171876	-403.6392211914064	269.8456420898438	-736.6918334960939	-357.5438537597657	268.9518127441407	-746.6687622070314	-339.9461669921876	221.7058258056641	-775.6790161132815	-395.7407531738282	79.56752777099611	-735.5381469726564	-369.0517883300782	93.38752746582033	-817.735534667969	-438.9875488281251	40.89262390136719	-787.028747558594	-239.7032318115235	88.67779541015626	-777.6755981445315	-243.6414489746094	97.84901428222659	-732.5825805664064	-271.1383361816407	69.76602172851564	-683.6409912109376	
923	4.61	-288.5251464843751	1625.812866210938	-904.7889404296877	-407.977020263672	1532.35498046875	-1007.899230957031	-401.7265014648439	1535.745971679688	-855.300476074219	-433.4039001464845	1424.744873046875	-932.983337402344	-479.7308654785157	1109.83642578125	-944.0991821289065	-293.9305419921876	1346.71826171875	-929.5501098632815	-350.1883544921876	1369.94091796875	-1108.836547851563	-357.2149963378907	1206.649047851563	-1232.384399414063	-349.1932983398438	1162.330810546875	-1210.073608398438	-367.2559814453126	1145.822998046875	-1265.653564453125	-381.1458435058594	1097.856079101563	-1292.62158203125	-465.8182983398439	1100.358520507813	-1269.892456054688	-442.8206176757814	922.565612792969	-1134.418579101563	-395.1921997070314	936.062927246094	-1110.012939453125	-397.4613342285157	884.871276855469	-1164.64453125	-362.6234436035157	1361.7607421875	-761.6359863281251	-424.6341857910157	1221.843017578125	-633.8197631835939	-397.527069091797	1179.198974609375	-633.6567382812501	-442.9155883789064	1163.3720703125	-596.9269409179689	-446.9760742187501	1092.83056640625	-577.1875610351564	-516.3842163085939	1090.559814453125	-631.9262695312501	-449.7506103515626	924.0640869140627	-749.8394775390626	-396.1140136718751	936.4025878906252	-760.4586791992189	-409.663543701172	889.448913574219	-707.5257568359376	-340.1863403320313	912.2069091796877	-1044.500610351563	-339.6832885742188	914.1497192382815	-838.8262329101565	-495.6841430664064	1003.439086914063	-940.2256469726565	-507.4765930175782	975.948669433594	-968.3013916015627	-507.6096191406251	975.7400512695315	-910.7362060546877	-428.0116577148439	770.105651855469	-1124.123413085938	-390.233856201172	693.1674194335939	-1130.658813476563	-341.4737854003907	699.6763305664064	-1123.019409179688	-413.619598388672	637.9997558593751	-1118.42919921875	-385.8995666503907	480.6978454589845	-1109.655395507813	-347.1923522949219	468.307098388672	-999.3675537109377	-348.9902648925782	329.6804809570313	-1055.4384765625	-374.7745666503907	281.3687133789063	-1124.902587890625	-345.2972412109376	281.7795410156251	-1089.657836914063	-361.3897094726563	202.486801147461	-1063.437622070313	-418.7371826171876	81.62891387939455	-1128.7275390625	-386.7247924804689	91.84153747558595	-1047.008178710938	-462.7051391601564	36.12008666992188	-1075.605102539063	-258.8999633789063	84.02503967285158	-1087.623046875	-260.0021362304688	86.90744781494142	-1127.2353515625	-283.8837890625001	67.55770111083986	-1173.488037109375	-418.7396240234376	675.8314819335939	-751.7597656250001	-376.0926208496094	624.6834716796876	-746.0361938476564	-341.9335021972657	630.2314453125001	-752.4277954101564	-394.0452880859376	544.9017944335939	-758.6323852539064	-383.9426879882813	485.0454406738282	-758.2463378906251	-349.1536254882813	475.3130493164064	-870.1018066406252	-335.4993896484376	351.3363647460938	-764.4519042968751	-403.8540039062501	269.8460693359376	-736.9408569335939	-357.7216796875001	269.0736389160157	-747.0256347656251	-340.1023254394532	221.7867431640626	-775.961364746094	-395.7588806152345	79.62830352783205	-735.6137084960939	-369.1398925781251	93.37829589843751	-817.8732910156252	-438.9664611816407	40.88228607177735	-787.0244140625002	-239.7310180664063	88.81346893310548	-777.9126586914065	-243.6364746093751	98.09912872314456	-732.8729248046876	-271.2048034667969	70.03513336181642	-683.8928222656251	
